<?xml version="1.0" encoding="UTF-8" standalone="no"?>
<svg
   version="1.1"
   id="svg2"
   xml:space="preserve"
   width="53.835331"
   height="53.940132"
   viewBox="0 0 53.835331 53.940132"
   sodipodi:docname="isc-icon-white.svg"
   inkscape:version="1.3.1 (91b66b0783, 2023-11-16)"
   xmlns:inkscape="http://www.inkscape.org/namespaces/inkscape"
   xmlns:sodipodi="http://sodipodi.sourceforge.net/DTD/sodipodi-0.dtd"
   xmlns="http://www.w3.org/2000/svg"
   xmlns:svg="http://www.w3.org/2000/svg"
   xmlns:rdf="http://www.w3.org/1999/02/22-rdf-syntax-ns#"
   xmlns:cc="http://creativecommons.org/ns#"
   xmlns:dc="http://purl.org/dc/elements/1.1/"><metadata
     id="metadata8"><rdf:RDF><cc:Work
         rdf:about=""><dc:format>image/svg+xml</dc:format><dc:type
           rdf:resource="http://purl.org/dc/dcmitype/StillImage" /></cc:Work></rdf:RDF></metadata><defs
     id="defs6" /><sodipodi:namedview
     pagecolor="#ffffff"
     bordercolor="#666666"
     borderopacity="1"
     objecttolerance="10"
     gridtolerance="10"
     guidetolerance="10"
     inkscape:pageopacity="0"
     inkscape:pageshadow="2"
     inkscape:window-width="1920"
     inkscape:window-height="1009"
     id="namedview4"
     inkscape:pagecheckerboard="0"
     showgrid="false"
     inkscape:zoom="8.9519331"
     inkscape:cx="26.474729"
     inkscape:cy="26.865706"
     inkscape:window-x="1912"
     inkscape:window-y="-8"
     inkscape:window-maximized="1"
     inkscape:current-layer="g12"
     inkscape:showpageshadow="2"
     inkscape:deskcolor="#d1d1d1" /><g
     id="g10"
     inkscape:groupmode="layer"
     inkscape:label="ink_ext_XXXXXX"
     transform="matrix(1.3333333,0,0,-1.3333333,-18.9016,72.324532)"><g
       id="g12"
       transform="scale(0.1)"><path
         d="m 215.676,394.621 c 40.808,0 73.906,33.074 73.906,73.914 0,40.813 -33.098,73.899 -73.906,73.899 -40.821,0 -73.914,-33.086 -73.914,-73.899 0,-40.84 33.093,-73.914 73.914,-73.914"
         style="fill:#ffb800;fill-opacity:1;fill-rule:nonzero;stroke:none"
         id="path14" /><path
         d="m 485.703,226.867 c -4.644,-2.414 -10.242,-4.199 -16.797,-5.371 -6.558,-1.172 -12.676,-1.758 -18.34,-1.758 -21.257,0 -36.941,5.535 -47.039,16.59 -10.097,11.055 -15.144,28.235 -15.144,51.555 0,44.863 21.043,67.293 63.14,67.293 5.743,0 11.692,-0.567 17.864,-1.699 6.164,-1.141 11.316,-2.715 15.468,-4.735 4.141,-2.023 6.211,-4.269 6.211,-6.75 0,-1.773 -0.703,-4.09 -2.121,-6.961 -1.425,-2.871 -3.101,-5.41 -5.047,-7.597 -1.953,-2.207 -3.671,-3.301 -5.156,-3.301 -0.359,0 -1.316,0.351 -2.871,1.062 -3.406,1.418 -6.965,2.61 -10.683,3.567 -3.719,0.957 -8.458,1.433 -14.192,1.433 -11.133,0 -19.375,-3.535 -24.715,-10.574 -5.359,-7.062 -8.027,-17.707 -8.027,-31.953 0,-14.238 2.684,-24.98 8.074,-32.207 5.383,-7.227 13.457,-10.84 24.238,-10.84 5.598,0 10.469,0.567 14.622,1.699 4.14,1.133 8.195,2.586 12.167,4.356 0.215,0.066 0.848,0.34 1.915,0.801 1.066,0.457 1.843,0.695 2.343,0.695 1.836,0 3.614,-1.086 5.313,-3.246 1.699,-2.168 3.086,-4.61 4.14,-7.34 1.067,-2.727 1.602,-4.699 1.602,-5.902 0,-3.473 -2.324,-6.414 -6.965,-8.817 z m -130.476,10.469 c -4.082,-6.203 -9.329,-10.684 -15.735,-13.449 -6.414,-2.762 -13.34,-4.149 -20.777,-4.149 -8.938,0 -16.789,0.907 -23.547,2.715 -6.777,1.805 -11.953,4.024 -15.527,6.641 -3.575,2.625 -5.371,5.105 -5.371,7.441 0,1.848 0.695,4.11 2.078,6.809 1.379,2.691 3.031,5.008 4.945,6.961 1.91,1.941 3.504,2.918 4.781,2.918 0.774,0 2.442,-0.672 4.992,-2.008 3.829,-1.996 7.461,-3.586 10.899,-4.789 3.437,-1.207 7.39,-1.805 11.855,-1.805 4.961,0 9.153,0.969 12.598,2.918 3.437,1.945 5.156,5.371 5.156,10.266 0,2.832 -0.89,5.273 -2.656,7.332 -1.777,2.051 -4.043,3.789 -6.809,5.207 -2.761,1.414 -6.519,3.086 -11.265,5 l -8.403,3.613 c -5.093,2.481 -9.48,5.203 -13.125,8.184 -3.648,2.976 -6.628,6.914 -8.933,11.797 -2.305,4.89 -3.449,10.878 -3.449,17.968 0,8.645 2.121,15.84 6.379,21.582 4.246,5.742 9.777,9.95 16.582,12.645 6.804,2.695 14.101,4.043 21.894,4.043 6.387,0 12.156,-0.664 17.332,-1.973 5.168,-1.308 9.231,-2.984 12.172,-5.047 2.937,-2.051 4.41,-4.109 4.41,-6.164 0,-1.695 -0.555,-3.875 -1.648,-6.531 -1.106,-2.664 -2.461,-4.981 -4.09,-6.973 -1.633,-1.98 -3.156,-2.968 -4.574,-2.968 -0.633,0 -1.778,0.351 -3.399,1.066 -2.625,1.051 -5.262,1.922 -7.918,2.594 -2.656,0.675 -5.898,1.015 -9.726,1.015 -6.59,0 -11.164,-1.043 -13.719,-3.132 -2.551,-2.098 -3.82,-4.559 -3.82,-7.391 0,-3.266 0.859,-5.988 2.597,-8.188 1.739,-2.195 3.938,-4.004 6.59,-5.418 2.656,-1.425 6.359,-3.058 11.113,-4.89 7.153,-3.047 13,-5.942 17.539,-8.664 4.536,-2.735 8.45,-6.653 11.75,-11.75 3.29,-5.106 4.942,-11.621 4.942,-19.559 0,-9.707 -2.039,-17.668 -6.113,-23.867 z M 238.313,226.973 c 0,-4.11 -3.758,-6.172 -11.27,-6.172 h -6.594 c -3.828,0 -6.679,0.539 -8.554,1.601 -1.883,1.059 -2.821,2.578 -2.821,4.571 v 120.976 c 0,4.184 3.797,6.27 11.375,6.27 h 6.594 c 3.895,0 6.75,-0.535 8.555,-1.59 1.804,-1.066 2.715,-2.625 2.715,-4.68 z M 545.527,541.652 H 254.719 c 29.519,-15.918 48.371,-49.023 42.961,-85.968 -5.239,-35.704 -34.282,-64.715 -69.985,-69.942 -36.953,-5.398 -70.007,13.469 -85.933,42.981 v -290.84 c 0,0 291.226,0 329.859,0 40.813,0 73.906,33.078 73.906,73.918 0,0.387 -0.054,0.769 -0.054,1.168 0,0.304 0.054,0.625 0.054,0.929 0,33.485 0,327.754 0,327.754"
         style="fill:#ffffff;fill-opacity:1;fill-rule:nonzero;stroke:none"
         id="path16" /></g></g></svg>
