<?xml version="1.0" encoding="UTF-8" standalone="no"?>
<svg
   version="1.1"
   id="svg2"
   xml:space="preserve"
   width="53.835999"
   height="53.940132"
   viewBox="0 0 53.835999 53.940132"
   sodipodi:docname="isc-icon.svg"
   inkscape:version="1.3.1 (91b66b0783, 2023-11-16)"
   xmlns:inkscape="http://www.inkscape.org/namespaces/inkscape"
   xmlns:sodipodi="http://sodipodi.sourceforge.net/DTD/sodipodi-0.dtd"
   xmlns="http://www.w3.org/2000/svg"
   xmlns:svg="http://www.w3.org/2000/svg"
   xmlns:rdf="http://www.w3.org/1999/02/22-rdf-syntax-ns#"
   xmlns:cc="http://creativecommons.org/ns#"
   xmlns:dc="http://purl.org/dc/elements/1.1/"><metadata
     id="metadata8"><rdf:RDF><cc:Work
         rdf:about=""><dc:format>image/svg+xml</dc:format><dc:type
           rdf:resource="http://purl.org/dc/dcmitype/StillImage" /></cc:Work></rdf:RDF></metadata><defs
     id="defs6" /><sodipodi:namedview
     pagecolor="#ffffff"
     bordercolor="#666666"
     borderopacity="1"
     objecttolerance="10"
     gridtolerance="10"
     guidetolerance="10"
     inkscape:pageopacity="0"
     inkscape:pageshadow="2"
     inkscape:window-width="1647"
     inkscape:window-height="889"
     id="namedview4"
     inkscape:pagecheckerboard="0"
     showgrid="false"
     inkscape:zoom="4.4759666"
     inkscape:cx="48.369441"
     inkscape:cy="34.517684"
     inkscape:window-x="2177"
     inkscape:window-y="104"
     inkscape:window-maximized="0"
     inkscape:current-layer="g12"
     inkscape:showpageshadow="2"
     inkscape:deskcolor="#d1d1d1" /><g
     id="g10"
     inkscape:groupmode="layer"
     inkscape:label="ink_ext_XXXXXX"
     transform="matrix(1.3333333,0,0,-1.3333333,-18.4364,72.324532)"><g
       id="g12"
       transform="scale(0.1)"><path
         d="m 286.094,468.539 c 0,-40.84 -33.094,-73.918 -73.906,-73.918 -40.821,0 -73.915,33.078 -73.915,73.918 0,40.809 33.094,73.895 73.915,73.895 40.812,0 73.906,-33.086 73.906,-73.895"
         style="fill:#ffb800;fill-opacity:1;fill-rule:nonzero;stroke:none"
         id="path14" /><path
         d="M 542.043,541.652 H 251.23 c 29.524,-15.918 48.372,-49.023 42.961,-85.964 -5.234,-35.704 -34.277,-64.727 -69.98,-69.942 -36.953,-5.402 -70.012,13.465 -85.938,42.977 v -290.84 c 0,0 291.231,0 329.864,0 40.808,0 73.906,33.078 73.906,73.906 0,0.402 -0.059,0.781 -0.059,1.184 0,0.3 0.059,0.625 0.059,0.925 0,33.489 0,327.754 0,327.754"
         style="fill:#004f9f;fill-opacity:1;fill-rule:nonzero;stroke:none"
         id="path16" /><path
         d="m 208.41,222.395 c -1.887,1.066 -2.824,2.589 -2.824,4.57 v 120.976 c 0,4.18 3.801,6.282 11.379,6.282 h 6.59 c 3.898,0 6.75,-0.539 8.554,-1.602 1.809,-1.066 2.715,-2.617 2.715,-4.68 V 226.965 c 0,-4.11 -3.758,-6.16 -11.269,-6.16 h -6.59 c -3.828,0 -6.68,0.535 -8.555,1.59"
         style="fill:#ffffff;fill-opacity:1;fill-rule:nonzero;stroke:none"
         id="path18" /><path
         d="m 291.68,222.453 c -6.778,1.809 -11.953,4.016 -15.528,6.641 -3.574,2.629 -5.359,5.109 -5.359,7.441 0,1.848 0.684,4.113 2.07,6.809 1.375,2.683 3.028,5.008 4.942,6.961 1.914,1.945 3.504,2.922 4.785,2.922 0.769,0 2.441,-0.676 4.988,-2.024 3.828,-1.98 7.461,-3.574 10.899,-4.773 3.437,-1.211 7.394,-1.809 11.855,-1.809 4.961,0 9.16,0.969 12.598,2.922 3.437,1.941 5.156,5.371 5.156,10.254 0,2.84 -0.887,5.281 -2.656,7.332 -1.778,2.062 -4.043,3.801 -6.805,5.215 -2.766,1.418 -6.523,3.086 -11.27,4.992 l -8.398,3.621 c -5.098,2.473 -9.484,5.207 -13.125,8.184 -3.652,2.98 -6.633,6.906 -8.937,11.797 -2.305,4.894 -3.446,10.878 -3.446,17.968 0,8.645 2.117,15.84 6.375,21.582 4.25,5.735 9.778,9.953 16.582,12.649 6.809,2.683 14.102,4.043 21.895,4.043 6.387,0 12.16,-0.664 17.336,-1.973 5.164,-1.309 9.226,-3 12.168,-5.051 2.937,-2.051 4.414,-4.109 4.414,-6.16 0,-1.699 -0.559,-3.887 -1.653,-6.543 -1.101,-2.656 -2.461,-4.98 -4.089,-6.965 -1.633,-1.98 -3.157,-2.968 -4.571,-2.968 -0.636,0 -1.777,0.351 -3.398,1.054 -2.629,1.067 -5.266,1.934 -7.922,2.61 -2.656,0.671 -5.898,1.004 -9.727,1.004 -6.589,0 -11.16,-1.043 -13.718,-3.133 -2.551,-2.09 -3.821,-4.551 -3.821,-7.383 0,-3.262 0.86,-5.996 2.598,-8.184 1.738,-2.207 3.937,-4.015 6.594,-5.429 2.656,-1.418 6.355,-3.047 11.113,-4.883 7.148,-3.059 12.996,-5.938 17.539,-8.664 4.531,-2.735 8.445,-6.649 11.746,-11.746 3.293,-5.11 4.942,-11.633 4.942,-19.563 0,-9.715 -2.039,-17.664 -6.114,-23.867 -4.082,-6.199 -9.324,-10.684 -15.73,-13.445 -6.418,-2.766 -13.34,-4.153 -20.781,-4.153 -8.938,0 -16.789,0.91 -23.547,2.715"
         style="fill:#ffffff;fill-opacity:1;fill-rule:nonzero;stroke:none"
         id="path20" /><path
         d="m 400.039,236.32 c -10.098,11.067 -15.144,28.243 -15.144,51.563 0,44.863 21.043,67.297 63.144,67.297 5.742,0 11.688,-0.578 17.859,-1.711 6.165,-1.133 11.321,-2.703 15.469,-4.727 4.141,-2.019 6.211,-4.265 6.211,-6.746 0,-1.777 -0.703,-4.094 -2.117,-6.965 -1.426,-2.871 -3.106,-5.41 -5.051,-7.605 -1.953,-2.199 -3.672,-3.293 -5.156,-3.293 -0.359,0 -1.316,0.351 -2.871,1.066 -3.399,1.414 -6.961,2.606 -10.684,3.563 -3.719,0.949 -8.457,1.426 -14.187,1.426 -11.133,0 -19.375,-3.524 -24.719,-10.575 -5.359,-7.05 -8.027,-17.695 -8.027,-31.945 0,-14.238 2.687,-24.98 8.078,-32.207 5.379,-7.227 13.465,-10.84 24.238,-10.84 5.594,0 10.469,0.559 14.617,1.699 4.141,1.133 8.196,2.578 12.168,4.356 0.215,0.07 0.852,0.332 1.914,0.801 1.067,0.461 1.848,0.683 2.344,0.683 1.836,0 3.613,-1.082 5.313,-3.242 1.699,-2.156 3.085,-4.598 4.14,-7.332 1.067,-2.727 1.602,-4.699 1.602,-5.898 0,-3.477 -2.325,-6.418 -6.961,-8.821 -4.649,-2.41 -10.246,-4.199 -16.797,-5.371 -6.563,-1.172 -12.676,-1.758 -18.34,-1.758 -21.262,0 -36.945,5.528 -47.043,16.582"
         style="fill:#ffffff;fill-opacity:1;fill-rule:nonzero;stroke:none"
         id="path22" /></g></g></svg>
