<?xml version="1.0" encoding="UTF-8" standalone="no"?>
<svg
   version="1.1"
   id="svg2"
   xml:space="preserve"
   width="116.10466"
   height="74.811462"
   viewBox="0 0 116.10466 74.81146"
   sodipodi:docname="isc-logo.svg"
   inkscape:version="1.3.1 (91b66b0783, 2023-11-16)"
   xmlns:inkscape="http://www.inkscape.org/namespaces/inkscape"
   xmlns:sodipodi="http://sodipodi.sourceforge.net/DTD/sodipodi-0.dtd"
   xmlns="http://www.w3.org/2000/svg"
   xmlns:svg="http://www.w3.org/2000/svg"
   xmlns:rdf="http://www.w3.org/1999/02/22-rdf-syntax-ns#"
   xmlns:cc="http://creativecommons.org/ns#"
   xmlns:dc="http://purl.org/dc/elements/1.1/"><metadata
     id="metadata8"><rdf:RDF><cc:Work
         rdf:about=""><dc:format>image/svg+xml</dc:format><dc:type
           rdf:resource="http://purl.org/dc/dcmitype/StillImage" /></cc:Work></rdf:RDF></metadata><defs
     id="defs6" /><sodipodi:namedview
     pagecolor="#ffffff"
     bordercolor="#666666"
     borderopacity="1"
     objecttolerance="10"
     gridtolerance="10"
     guidetolerance="10"
     inkscape:pageopacity="0"
     inkscape:pageshadow="2"
     inkscape:window-width="1920"
     inkscape:window-height="1009"
     id="namedview4"
     inkscape:pagecheckerboard="0"
     showgrid="false"
     inkscape:zoom="7.3109239"
     inkscape:cx="26.809197"
     inkscape:cy="35.768393"
     inkscape:window-x="1912"
     inkscape:window-y="-8"
     inkscape:window-maximized="1"
     inkscape:current-layer="g12"
     inkscape:showpageshadow="2"
     inkscape:deskcolor="#d1d1d1" /><g
     id="g10"
     inkscape:groupmode="layer"
     inkscape:label="ink_ext_XXXXXX"
     transform="matrix(1.3333333,0,0,-1.3333333,-19.683333,91.465064)"><g
       id="g12"
       transform="scale(0.1)"><path
         d="m 295.438,612.09 c 0,-40.832 -33.094,-73.914 -73.907,-73.914 -40.82,0 -73.906,33.082 -73.906,73.914 0,40.816 33.086,73.898 73.906,73.898 40.813,0 73.907,-33.082 73.907,-73.898"
         style="fill:#ffb800;fill-opacity:1;fill-rule:nonzero;stroke:none"
         id="path14" /><path
         d="M 551.387,685.207 H 260.574 c 29.524,-15.918 48.371,-49.019 42.961,-85.965 -5.234,-35.699 -34.277,-64.726 -69.98,-69.945 -36.946,-5.399 -70.012,13.473 -85.93,42.98 V 281.438 c 0,0 291.223,0 329.855,0 40.809,0 73.907,33.078 73.907,73.914 0,0.394 -0.051,0.777 -0.059,1.171 0.008,0.309 0.059,0.625 0.059,0.934 0,33.484 0,327.75 0,327.75"
         style="fill:#004f9f;fill-opacity:1;fill-rule:nonzero;stroke:none"
         id="path16" /><path
         d="m 217.754,365.953 c -1.887,1.063 -2.824,2.586 -2.824,4.574 V 491.5 c 0,4.18 3.8,6.273 11.379,6.273 h 6.589 c 3.899,0 6.75,-0.531 8.555,-1.597 1.809,-1.059 2.715,-2.621 2.715,-4.676 V 370.527 c 0,-4.117 -3.75,-6.168 -11.27,-6.168 h -6.589 c -3.829,0 -6.68,0.536 -8.555,1.594"
         style="fill:#ffffff;fill-opacity:1;fill-rule:nonzero;stroke:none"
         id="path18" /><path
         d="m 301.023,366.008 c -6.777,1.805 -11.953,4.023 -15.527,6.644 -3.574,2.621 -5.359,5.102 -5.359,7.442 0,1.84 0.683,4.109 2.066,6.801 1.379,2.695 3.031,5.015 4.945,6.964 1.915,1.946 3.504,2.922 4.786,2.922 0.781,0 2.437,-0.672 5,-2.015 3.828,-1.989 7.449,-3.582 10.886,-4.786 3.438,-1.207 7.395,-1.804 11.856,-1.804 4.961,0 9.16,0.969 12.597,2.918 3.438,1.949 5.157,5.371 5.157,10.258 0,2.839 -0.891,5.281 -2.657,7.339 -1.777,2.051 -4.043,3.789 -6.804,5.207 -2.766,1.415 -6.524,3.086 -11.27,5 l -8.398,3.614 c -5.098,2.472 -9.473,5.207 -13.125,8.183 -3.653,2.977 -6.633,6.907 -8.93,11.801 -2.301,4.887 -3.453,10.875 -3.453,17.965 0,8.644 2.129,15.84 6.375,21.582 4.25,5.734 9.777,9.953 16.582,12.648 6.809,2.692 14.102,4.039 21.906,4.039 6.375,0 12.149,-0.66 17.324,-1.968 5.165,-1.313 9.227,-2.996 12.168,-5.047 2.938,-2.055 4.415,-4.113 4.415,-6.168 0,-1.699 -0.547,-3.875 -1.653,-6.539 -1.101,-2.656 -2.461,-4.981 -4.09,-6.961 -1.632,-1.988 -3.156,-2.973 -4.574,-2.973 -0.633,0 -1.766,0.352 -3.394,1.059 -2.629,1.062 -5.266,1.933 -7.922,2.605 -2.657,0.672 -5.899,1.012 -9.727,1.012 -6.59,0 -11.16,-1.051 -13.711,-3.141 -2.558,-2.089 -3.828,-4.55 -3.828,-7.386 0,-3.262 0.859,-5.985 2.598,-8.184 1.738,-2.199 3.937,-4.008 6.593,-5.418 2.657,-1.422 6.356,-3.055 11.114,-4.894 7.156,-3.047 12.996,-5.938 17.539,-8.661 4.527,-2.734 8.445,-6.644 11.746,-11.75 3.293,-5.101 4.941,-11.625 4.941,-19.558 0,-9.711 -2.039,-17.668 -6.113,-23.867 -4.082,-6.203 -9.316,-10.684 -15.73,-13.45 -6.418,-2.761 -13.34,-4.144 -20.782,-4.144 -8.925,0 -16.789,0.902 -23.547,2.711"
         style="fill:#ffffff;fill-opacity:1;fill-rule:nonzero;stroke:none"
         id="path20" /><path
         d="m 409.383,379.883 c -10.098,11.055 -15.145,28.238 -15.145,51.558 0,44.86 21.043,67.289 63.145,67.289 5.738,0 11.695,-0.566 17.859,-1.699 6.164,-1.136 11.321,-2.715 15.469,-4.73 4.141,-2.024 6.223,-4.274 6.223,-6.754 0,-1.774 -0.715,-4.09 -2.129,-6.961 -1.426,-2.871 -3.106,-5.406 -5.051,-7.598 -1.953,-2.203 -3.672,-3.297 -5.156,-3.297 -0.36,0 -1.317,0.352 -2.871,1.059 -3.399,1.418 -6.961,2.609 -10.684,3.566 -3.719,0.957 -8.445,1.434 -14.188,1.434 -11.132,0 -19.367,-3.531 -24.718,-10.578 -5.36,-7.055 -8.028,-17.703 -8.028,-31.945 0,-14.243 2.696,-24.981 8.079,-32.211 5.378,-7.227 13.464,-10.84 24.238,-10.84 5.594,0 10.469,0.558 14.617,1.699 4.152,1.133 8.203,2.582 12.168,4.359 0.215,0.067 0.859,0.332 1.914,0.797 1.066,0.457 1.848,0.688 2.344,0.688 1.836,0 3.613,-1.078 5.312,-3.242 1.699,-2.161 3.086,-4.606 4.153,-7.336 1.062,-2.727 1.589,-4.696 1.589,-5.899 0,-3.476 -2.324,-6.414 -6.96,-8.82 -4.653,-2.414 -10.247,-4.199 -16.797,-5.371 -6.555,-1.168 -12.668,-1.754 -18.34,-1.754 -21.262,0 -36.946,5.527 -47.043,16.586"
         style="fill:#ffffff;fill-opacity:1;fill-rule:nonzero;stroke:none"
         id="path22" /><path
         d="m 614.004,332.98 h 0.242 c 4.074,9.239 9.113,10.317 18.711,10.317 v -10.195 c -1.805,0.238 -3.484,0.601 -5.281,0.601 -10.91,0 -13.672,-8.277 -13.672,-16.433 v -35.743 h -9.836 v 60.567 h 9.836 v -9.114"
         style="fill:#231f20;fill-opacity:1;fill-rule:nonzero;stroke:none"
         id="path24" /><path
         d="m 676.746,316.07 c 0,17.633 -4.91,19.789 -12.109,19.789 -6.239,0 -11.395,-2.996 -11.512,-19.789 z m -23.621,-7.437 c 0,-16.91 4.551,-20.27 12.227,-20.27 6.718,0 10.195,5.399 10.554,11.516 h 10.801 c -0.129,-13.434 -8.398,-19.551 -21.113,-19.551 -12.832,0 -23.028,3.836 -23.028,30.586 0,17.75 2.043,32.383 23.028,32.383 17.265,0 21.594,-9.477 21.594,-29.508 v -5.156 h -34.063"
         style="fill:#231f20;fill-opacity:1;fill-rule:nonzero;stroke:none"
         id="path26" /><path
         d="m 721.16,280.328 c -13.066,0 -21.23,5.758 -20.867,19.672 h 11.152 c 0,-3.48 0.125,-11.637 10.078,-11.637 5.879,0 10.43,3 10.43,9.235 0,10.797 -30.215,11.035 -30.215,29.144 0,6.36 3.836,16.555 20.867,16.555 10.793,0 20.02,-5.156 19.192,-17.152 h -10.918 c 0.113,6.355 -3.242,9.714 -9.473,9.714 -5.285,0 -9.355,-2.879 -9.355,-8.152 0,-10.68 30.222,-10.437 30.222,-28.906 0,-13.313 -9.121,-18.473 -21.113,-18.473"
         style="fill:#231f20;fill-opacity:1;fill-rule:nonzero;stroke:none"
         id="path28" /><path
         d="m 789.551,316.07 c 0,17.633 -4.914,19.789 -12.11,19.789 -6.242,0 -11.398,-2.996 -11.515,-19.789 z m -23.625,-7.437 c 0,-16.91 4.551,-20.27 12.226,-20.27 6.719,0 10.196,5.399 10.559,11.516 H 799.5 c -0.117,-13.434 -8.387,-19.551 -21.102,-19.551 -12.832,0 -23.031,3.836 -23.031,30.586 0,17.75 2.043,32.383 23.031,32.383 17.274,0 21.59,-9.477 21.59,-29.508 v -5.156 h -34.062"
         style="fill:#231f20;fill-opacity:1;fill-rule:nonzero;stroke:none"
         id="path30" /><path
         d="m 825.086,299.516 c 0,-5.871 2.883,-11.153 9.484,-11.153 5.996,0 13.426,3.723 12.469,23.27 -9.355,-0.117 -21.953,0.722 -21.953,-12.117 z m 22.187,-9.231 h -0.234 c -2.996,-6.961 -7.676,-9.957 -15.234,-9.957 -12.832,0 -16.551,8.277 -16.551,19.91 0,18.352 17.988,19.192 31.785,18.828 0.234,8.039 0.363,16.793 -10.195,16.793 -6.602,0 -10.078,-4.437 -9.473,-10.796 h -10.672 c 0.477,13.554 7.676,18.234 20.504,18.234 15.59,0 19.672,-8.039 19.672,-18.234 v -29.137 c 0,-4.801 0.477,-9.719 1.199,-14.399 h -10.801 v 8.758"
         style="fill:#231f20;fill-opacity:1;fill-rule:nonzero;stroke:none"
         id="path32" /><path
         d="m 886.043,332.98 h 0.242 c 4.074,9.239 9.113,10.317 18.715,10.317 v -10.195 c -1.809,0.238 -3.488,0.601 -5.285,0.601 -10.906,0 -13.672,-8.277 -13.672,-16.433 v -35.743 h -9.832 v 60.567 h 9.832 v -9.114"
         style="fill:#231f20;fill-opacity:1;fill-rule:nonzero;stroke:none"
         id="path34" /><path
         d="m 947.234,322.668 c 0.246,9.953 -4.668,12.59 -8.386,12.59 -7.563,0 -12.715,-3.598 -12.715,-20.145 0,-19.672 2.519,-26.75 12.715,-26.75 2.273,0 9.109,2.399 8.75,13.313 h 10.32 c 0.352,-17.028 -12.352,-21.348 -19.07,-21.348 -12.832,0 -23.028,3.836 -23.028,30.586 0,17.75 2.039,32.383 23.028,32.383 12.105,0 19.187,-7.078 18.582,-20.629 h -10.196"
         style="fill:#231f20;fill-opacity:1;fill-rule:nonzero;stroke:none"
         id="path36" /><path
         d="m 1008.19,281.527 v 41.02 c 0,7.433 -2.39,12.711 -10.788,12.711 -9.836,0 -12.355,-7.914 -12.355,-18.11 v -35.621 h -9.832 v 86.594 h 9.832 v -33.82 h 0.48 c 3.953,7.078 8.516,8.996 16.433,8.996 10.31,0 16.07,-5.156 16.07,-18.832 v -42.938 h -9.84"
         style="fill:#231f20;fill-opacity:1;fill-rule:nonzero;stroke:none"
         id="path38" /><path
         d="m 157.176,208.375 v 11.754 c 0,12.234 8.644,14.633 17.394,14.633 2.039,0 3.243,-0.121 4.676,-0.364 v -7.074 c -10.43,0.719 -12.226,-3.715 -12.226,-8.636 v -10.313 h 12.226 v -7.437 H 167.02 v -53.129 h -9.844 v 53.129 h -9.348 v 7.437 h 9.348"
         style="fill:#231f20;fill-opacity:1;fill-rule:nonzero;stroke:none"
         id="path40" /><path
         d="m 225.438,181.391 c 0,16.55 -5.157,20.148 -12.715,20.148 -7.547,0 -12.703,-3.598 -12.703,-20.148 0,-19.672 2.507,-26.746 12.703,-26.746 10.195,0 12.715,7.074 12.715,26.746 z m -35.743,-4.2 c 0,17.75 2.043,32.383 23.028,32.383 20.996,0 23.027,-14.633 23.027,-32.383 0,-26.746 -10.195,-30.586 -23.027,-30.586 -12.832,0 -23.028,3.84 -23.028,30.586"
         style="fill:#231f20;fill-opacity:1;fill-rule:nonzero;stroke:none"
         id="path42" /><path
         d="m 264.219,199.258 h 0.242 c 4.074,9.238 9.113,10.316 18.711,10.316 v -10.191 c -1.805,0.238 -3.484,0.597 -5.281,0.597 -10.911,0 -13.672,-8.277 -13.672,-16.429 v -35.742 h -9.836 v 60.566 h 9.836 v -9.117"
         style="fill:#231f20;fill-opacity:1;fill-rule:nonzero;stroke:none"
         id="path44" /><path
         d="m 325.289,165.797 c 0,-5.875 2.883,-11.152 9.484,-11.152 5.997,0 13.43,3.718 12.469,23.265 -9.351,-0.117 -21.953,0.723 -21.953,-12.113 z m 22.191,-9.234 h -0.238 c -2.996,-6.958 -7.672,-9.958 -15.23,-9.958 -12.832,0 -16.555,8.278 -16.555,19.915 0,18.347 17.988,19.191 31.785,18.828 0.238,8.035 0.363,16.793 -10.191,16.793 -6.602,0 -10.078,-4.442 -9.473,-10.797 h -10.676 c 0.481,13.554 7.676,18.23 20.508,18.23 15.586,0 19.668,-8.035 19.668,-18.23 v -29.141 c 0,-4.801 0.481,-9.719 1.203,-14.394 H 347.48 v 8.754"
         style="fill:#231f20;fill-opacity:1;fill-rule:nonzero;stroke:none"
         id="path46" /><path
         d="m 423.691,146.605 c -13.07,0 -21.23,5.758 -20.871,19.676 h 11.153 c 0,-3.48 0.129,-11.636 10.078,-11.636 5.879,0 10.429,2.996 10.429,9.234 0,10.797 -30.214,11.035 -30.214,29.144 0,6.36 3.839,16.551 20.871,16.551 10.789,0 20.019,-5.152 19.187,-17.152 h -10.918 c 0.117,6.359 -3.242,9.719 -9.472,9.719 -5.282,0 -9.356,-2.883 -9.356,-8.157 0,-10.679 30.227,-10.433 30.227,-28.906 0,-13.308 -9.121,-18.473 -21.114,-18.473"
         style="fill:#231f20;fill-opacity:1;fill-rule:nonzero;stroke:none"
         id="path48" /><path
         d="m 494.129,208.375 h 9.836 v -47.973 c 0,-4.199 0.242,-8.394 0.605,-12.593 h -10.441 v 7.312 h -0.359 c -3.235,-5.516 -8.997,-8.516 -15.356,-8.516 -10.547,0 -16.305,5.282 -16.305,15.598 v 46.172 h 9.832 v -41.977 c 0,-7.316 3.36,-12.234 10.313,-12.234 5.281,0 11.875,3.957 11.875,14.035 v 40.176"
         style="fill:#231f20;fill-opacity:1;fill-rule:nonzero;stroke:none"
         id="path50" /><path
         d="m 557.242,147.809 v 41.976 c 0,6.477 -2.273,11.754 -10.672,11.754 -10.789,0 -12.351,-9.594 -12.351,-17.871 v -35.859 h -9.836 v 47.972 c 0,4.199 -0.235,8.395 -0.598,12.594 h 10.434 v -7.793 h 0.476 c 3.84,6.836 8.399,8.992 16.192,8.992 12.961,0 16.191,-7.797 16.191,-19.789 v -41.976 h -9.836"
         style="fill:#231f20;fill-opacity:1;fill-rule:nonzero;stroke:none"
         id="path52" /><path
         d="m 619.883,147.809 v 41.976 c 0,6.477 -2.278,11.754 -10.676,11.754 -10.789,0 -12.352,-9.594 -12.352,-17.871 v -35.859 h -9.835 v 47.972 c 0,4.199 -0.235,8.395 -0.594,12.594 h 10.429 v -7.793 h 0.477 c 3.84,6.836 8.398,8.992 16.191,8.992 12.961,0 16.192,-7.797 16.192,-19.789 v -41.976 h -9.832"
         style="fill:#231f20;fill-opacity:1;fill-rule:nonzero;stroke:none"
         id="path54" /><path
         d="m 667.898,159.082 h 0.247 l 14.511,49.293 h 10.672 L 665.859,124.902 H 655.66 l 6.84,22.907 -20.508,60.566 h 11.395 l 14.511,-49.293"
         style="fill:#231f20;fill-opacity:1;fill-rule:nonzero;stroke:none"
         id="path56" /><path
         d="m 736.66,208.375 v 11.754 c 0,12.234 8.641,14.633 17.391,14.633 2.043,0 3.242,-0.121 4.679,-0.364 v -7.074 c -10.429,0.719 -12.226,-3.715 -12.226,-8.636 v -10.313 h 12.226 v -7.437 h -12.226 v -53.129 h -9.844 v 53.129 h -9.347 v 7.437 h 9.347"
         style="fill:#231f20;fill-opacity:1;fill-rule:nonzero;stroke:none"
         id="path58" /><path
         d="m 803.25,208.375 h 9.836 v -47.973 c 0,-4.199 0.242,-8.394 0.605,-12.593 H 803.25 v 7.312 h -0.359 c -3.235,-5.516 -8.996,-8.516 -15.356,-8.516 -10.543,0 -16.305,5.282 -16.305,15.598 v 46.172 h 9.833 v -41.977 c 0,-7.316 3.359,-12.234 10.312,-12.234 5.285,0 11.875,3.957 11.875,14.035 v 40.176"
         style="fill:#231f20;fill-opacity:1;fill-rule:nonzero;stroke:none"
         id="path60" /><path
         d="m 834.59,208.375 v 11.637 l 9.832,4.433 v -16.07 h 13.195 v -7.437 h -13.195 v -37.059 c 0,-3.84 0,-8.758 8.996,-8.758 0.723,0 2.273,0.242 4.434,0.484 v -7.558 c -3.235,-0.238 -6.477,-0.957 -9.707,-0.957 -9.36,0 -13.555,3.84 -13.555,10.793 v 43.055 h -9.961 v 7.437 h 9.961"
         style="fill:#231f20;fill-opacity:1;fill-rule:nonzero;stroke:none"
         id="path62" /><path
         d="m 901.883,208.375 h 9.836 v -47.973 c 0,-4.199 0.242,-8.394 0.605,-12.593 h -10.441 v 7.312 h -0.36 c -3.234,-5.516 -8.996,-8.516 -15.351,-8.516 -10.547,0 -16.309,5.282 -16.309,15.598 v 46.172 h 9.832 v -41.977 c 0,-7.316 3.36,-12.234 10.313,-12.234 5.285,0 11.875,3.957 11.875,14.035 v 40.176"
         style="fill:#231f20;fill-opacity:1;fill-rule:nonzero;stroke:none"
         id="path64" /><path
         d="m 942.344,199.258 h 0.242 c 4.074,9.238 9.113,10.316 18.711,10.316 v -10.191 c -1.805,0.238 -3.484,0.597 -5.281,0.597 -10.911,0 -13.672,-8.277 -13.672,-16.429 v -35.742 h -9.836 v 60.566 h 9.836 v -9.117"
         style="fill:#231f20;fill-opacity:1;fill-rule:nonzero;stroke:none"
         id="path66" /><path
         d="m 1007.97,182.348 c 0,17.632 -4.91,19.793 -12.111,19.793 -6.242,0 -11.398,-3 -11.515,-19.793 z m -23.626,-7.434 c 0,-16.91 4.551,-20.269 12.226,-20.269 6.72,0 10.2,5.394 10.56,11.511 h 10.8 c -0.13,-13.429 -8.4,-19.551 -21.114,-19.551 -12.832,0 -23.031,3.84 -23.031,30.586 0,17.75 2.043,32.383 23.031,32.383 17.264,0 21.594,-9.476 21.594,-29.504 v -5.156 h -34.066"
         style="fill:#231f20;fill-opacity:1;fill-rule:nonzero;stroke:none"
         id="path68" /></g></g></svg>
